<mxfile host="app.diagrams.net" modified="2023-09-01T00:10:16.709Z" agent="Mozilla/5.0 (Windows NT 10.0; Win64; x64) AppleWebKit/537.36 (KHTML, like Gecko) Chrome/116.0.0.0 Safari/537.36" etag="S1Cypsk6WDQ16cL8TJdl" version="21.7.1" type="device">
  <diagram name="PÃ¡gina-1" id="16UVPCjrk1yD8bJ3_6Fx">
    <mxGraphModel dx="1176" dy="507" grid="1" gridSize="10" guides="1" tooltips="1" connect="1" arrows="1" fold="1" page="1" pageScale="1" pageWidth="827" pageHeight="1169" math="0" shadow="0">
      <root>
        <mxCell id="0" />
        <mxCell id="1" parent="0" />
        <mxCell id="pM872rkq_lDW4JvCNZDl-1" value="" style="shape=image;verticalLabelPosition=bottom;labelBackgroundColor=default;verticalAlign=top;aspect=fixed;imageAspect=0;image=data:image/png,iVBORw0KGgoAAAANSUhEUgAAAb0AAACWCAYAAABKMlYFAAAAAXNSR0IArs4c6QAAAARnQU1BAACxjwv8YQUAAAAJcEhZcwAADsMAAA7DAcdvqGQAACjoSURBVHhe7d0HVBTXHsfx7y4oRcFesMUo9h4UxRJrLBgTO4oaY++9PTWxxGhsRMVujAWxkGg09t6woDEWRLF3QKwggoBb3gKLFLFgwd3s//MOPmcYz3lv7tz53Zl7516FVgchhBDCBCj1/y2EEEL850noCSGEMBkSekIIIUyGhJ4QQgiTIaEnhBDCZEjoCSGEMBkSekIIIUyGhJ4QQgiTIaEnhBDCZEjoCSGEMBkSekIIIUyGhJ4QQgiTIaEnhBDCZEjoCSGEMBkSekIIIUyGhJ4QQgiTIaEnhBDCZEjoCSGEMBkKrY7+72lGoZCsFUIIEUer1ej/9vF9stBLy/+TIkHMuT9x4h/9lvgUKlasJGVgAKQcDENMOaRlHsgjlxBCCJMhoSeEEMJkSOgJIYQwGRJ6QgghTIaEnhBCCJMhoSeEEMJkSOgJwxRxGvdRy/BX6bfFJxDBv+7j+E0K4dOSuvBBSegJAxTB6d9ns/bac9L8I1LxQvhpD35de4PnUgifkNSFD01CTxgYNXd3uTFm5WWi9XtE2lPf3cvkMV5clEL4hKQufAwSesKAqAjY/SsDx+8iUF7lfDKqgP1MHjiZbYFq/R6R9qQufCwyDZmJMdhpyDQhnFz2Mz8sOs69+EpunoFsWa0xw5xSXd2Z1jyX/hdxNCoVWnNz3e+Ni+FOf6Xh8cmVjPlhCUfvxQeeGRmzZcVad5LTlerIwinfkFvfVFbrzr+Z7vwbK4Mth1TVBQ2q5xrM0xl3Ocg0ZMIEKchUrgXdG+V7EWJmuarSddQwRo8eTMcqmfV74dmdf/hj+nBc2s3iH3nv80EpMpXBpXt9CrwohJxU7zpEVwbD+F/HSmRRPidg/28MbPk11at+Ra2mQ5i9/67uuUR8OG9RF1TBHFowGtcG9anq9BV1XH7E0zdMf7R4HQk9YRiUmSjsUIkyea11VT6Owio3papUoVq1ypTOY4HmkT87V7jRr/Nwpq7x4WaYRjr3PyglmQuXp0oZO6wTCoE8pRx1ZVAFp9J2KPw8GD3tACE22bA1V/NU1wBZPvYX/rghr0I/mDfWheecXPMHfnbO9B3ejQaF0vHk6gHmTPKSEZ5vQUJPGA1l1hLU7zCQce1LYLwvc4zZM/49ZUZ3Dw+WLV2K14zmfB5TEOFn8T7+OO4Q8fFpnpOnXnd6fluNqnVdGN23Ntl06aiNfkaUtALfSEJPGBkFVtYW+r+LtGWFU4fvqZot5raheyr8ojZV7GJewFlia2sde4RIA8os5M4dXwc0PH0UQpR1Ib7p3Zoy6fS7xStJ6Akh3o0mnPAIDYrMDtRytNTvFGkm6gF+2xfz44LjPDMzR6l+rotA8SYSekKIdxJ19jgnQ60p/10n6mWVW0la04QFceXqbR5FalA/ucS6CRNZeUU69d5ErlRhQGK67eO77sWn8laloA5ks8ceoqr3ZaxrIeSt2of25lJQZi9D0z4TWLaoF5Uy6Y6NvIjPiYf634pXkdATBsXcPH6QNmjVajQxHfPqMELC5MVNmkn87aNWjTquEHgSEqZ/fabm9oZZrHjalEljG5NPRhV9FG9bF6yKtqBvs4Jxg7sUCf9GpExCTxgQM7La5cRK38BVB/tx6PgpNrvNYt1NeW2TVsyy2pH7RSHc48yhfzmxeTbT192O/R4v6sIapm3Pw+DJHSht+ZyokCusnb8u7njxgby6Lqw976d7yt7EqQfxn4mko0D+3CjMC1CmdML3rCJlEnrCoNjU7kjP6jnjWq0RviweMo7N2ZvhUjp97O9jREXFBaBWpUIlQ7Q/PJsadO3pRK7YQnjG6cUjGbU5G61cSmIecgz3MUs5cmodg53r4eRUl2r1ujA/IHvsPxUfzqvqQqOgFUxyn0afrmNYdiSAx/fP4LXNn2z1OtC6hDx2v4lMQ2ZiDHYasiSecvPECfzuashRshIVC9nEtc4iAjh9/CQ7l83jT79wtGa5qdWzB671nPgiv/EMmTfcaciSenrzFD5+wWhzFKdyxYLYagPZNKIPE/Y/TDZK0IzyA1ayuEMe/bZxMI5yeLkuaK6sZWCfufg81D/ppctG2W96MHpgQwpbxe0yJmk9DZmEnokxjtD7bzOW0PuvM+Zy0DwL5vKFOzwhI3b2hclnY7xPeGkdevJ6UwghjIzSKhfFKjhQqUIxow68T0FCTwghhMmQ0BNCCGEyJPSEEEKYjE82kEUIIYSIYRKjNwMDA/RbIi3lyZNXRs5+YjJ62TBIORiGtC4HeeQSQghhMiT0hBBCmAwJPSGEECZD+vRMjGH26akIPrWdTXv9CIy0wq5kNZydK5L3DQukh9+7yb2nGpJcwAorchTIjY0BTzZv8H1JETfYvfo4Nq1bU9lGvy8lqnuc2bGD/b63CdXakr/slzRuWJacRvKttGGXQwTXd/+Bj00L2r62EGKEc+/GfZ7GLsOQQGGdnQK5bRJWzDBQ0qdniDT3+cfnCtH6TfEBRV1kReeqFKvoQrehExj7wyi6N69JsbLtcP8nVH9QCkK3M7BSaQoVLk3hRD8lWi7mapo34/4jwq+x/dc+1CzuQP3eSzn+5NU3oij/lXSqWIPOf9wjV6Xa1Ktix4O1vXBw6InHhSj9USL1wrm63Z1uNctTqv5Afjsev5zTq4VuHU4l+1JJ6kFh+wq0nH8taYNQxJLQewsqvxWM7jOXnY/1O8QHEsGR8d/Td2t6vv7fVJas/J35Y9vikF1JxKUNDG7Wl1UBKVV5NZeWzGTtgwzY2tok/GSyo3HvzpSVWZlSTfPoKL9NW83RC/6cD4h8/c0ywodxbQawq+REti4dQpt6TlSt04JhS1Yzyu5verb5BR/JvdTTPOLwbzNZcfQS588H8uxtEkt9mSXT1vMgQ6J6oPvJlKchvbuXiVuhQSQhofdGYexZuo7zQXtYtu6W7nYrPpiHG5mztwJL/zmA58Q+dHJtQ89xizm4azw1MytQB25k6kLf2DXckgjby6+LVYw4HkBo6N2En5Ar/NUlj1zU70CZ1Ylu40Yz3n0gDbO8fsXuqP0eeJxTU65uXXIlPtnKvNSpVQzVub/wOi7vRVJNmZVq3UYzbvx0hjbM8lbXcdhudxarBnP8UaJ6oPsJubOGLnmlJqREzsobaO78zbItwWh0TyXHPb04I3X5g4n08cdu+M80z5+018G6fG/GdiiIuVbFJd9zPNPvj6Pm6tJZeDsNpmcpWSX6g1PonhQyvj70ngXd5aFa97Tt60ekfl8cLdFRz/V/F+9OoXtay6D78w3U11g6/QhOw7siVeHtSei9VjS+nqs4/DRuS3VlA8v3PonbEO/NsvF43Jpn1W8lZkmFCsUx19V6C0urpB3xTw/yq/tBLnn1p3rNdgycsRm/x4Y6GMEYmWH2hhuodfGifGau5tqycbidCNfv1VFdZsuOCyiKf0trx4RFf0Xqmb2pEHSe7nfHff9lvHrVo2arYcz4+xxSFd5MQu91Qvez9M9rCR3JmmC2Ld/EHbmwPjINkZFRuj914efkoPsznprry93wvKZG9TSIcwc3MGuwCw6lGzB47TUZaJRG0lfpTJ+ameCJD+OatOKnA/d1ZRWGz6S+TL9ZlYlLRuD0hpG34j2pb7B88hquqdQ8DfDn4Np5DG5WjdK1RrD2qtSE15HQeyU1t9at4lT1/nQqltAd/PTwalb6vdTLJD6oCI4dP48mewM6u+RPdJGaYdd2HsdP7mbLymmM+r4GBTPonscDjzDTtQEuv12U4EsLZkXpu3w+XUpYob57gHGNG9CinQs99jmy6OBahlbKqD9QfDRmuWm7+CAnD61j5axhfF+rABl4TqD3HFxrdeC3C1ITXkVC71Wiz+K5JoTGXbrQpW1FXqzCr7rEH8u90b/xFB+BJngTHlvCcRw0kta5k16illkLUKy8E86uvZm4dDsXfP9gxJc5UKoC+XtwH2aekwZJWlDm/Zb5uzwY4GCLIvwiG9b4kalqHZwKyiNe2rAk62dFKV+tIa79x7F032l8Nwzmy5xKVHc2M7jbHKQqpExC7xVCdnuyNXtL2pW2oECL1tTNGt+trCFosycbguQd58cRzpHpMzhQdDBzBpXhTT1DFoUaM3mzF6Njni6eHmPhwiPIaPm0oOHBhZOcN6tGhyaFsNI+xPsXF2p19OSiFMAnYEGhbyawecMIKtnoqsLR31l4SAoiJRJ6KVHfYu3y0zh0+IZ8ujOkzPYV332TL+FkhR3Bc9Wll4fSi/cWdmgyA9cXYsqywVRI6Mx7PZvKjJzRlRLpNNw+8Q835buSj0xD8NZhNGi7gyqzl7Nsw07+GlaJLIooLq3qyzf9tnBP2oSfhI3TUGb0LE46zR1OHJNPrFIioZeCqNOrWf2wAR3r2ur3WFGlfTNKp9Nv8hw/L0+8I/Sb4oPQBG5gQP+jNFq6gM72qfus1tKxOd8W1f2byGdEyjQUH5Xm7loGdF3M/cb/Y6hjBt1dxI6GUzawaYyTLviec3npKH45lPRjBpFWLHFs9TWxVSHiDZMMmCgJvZeEsHPJBgKiz7FowAB69Yr76ed+miirhC9nNAFb8dgUM2pNfBBhx5jYcRbpx6xgfI3M+p2poLvx2uVUYpH/M/LJNBQfkYZba5bw910LKtetTsKskJmp9uMKFrbNi1J1na0bT8ugok9EmSc3OZUW5P88r8zIkgIJvWTUN/7C43wtpv42hqFDBjAk/mfoDyx0a03B+M9ntE/Y7/Enl+X9wfuL9GPudyM457oI96Z273ZRqm5wPcCGOk3r6W6/4uNREXA7CJXCGlvbZINWdA2PZkPaUyqdlvDQUHnK+ERU128QYFOTpg2kJqREQi+JaE6tWEd44444FyuEvX3Sn6IN2tGsRELbKcp3LR4+SecLEakU6c+iDr3ZUdudJZ2KJBu4EsWtzSPpPOWMfltHo0nh6VpD4LqFbMnakzGu7xiaQk9L/LorKU98b459qSJYa0O4fuXuS31GisyZyKSwoET5krzoDRCp9mLxm9esPqDR1YWXaIJYN3c7WfuNwtVOakJK5Kwk9mgPSzeYUbOBfcqvBcyL0bJZeV60b9W3+Xv5Lh7KO853E36WeW2+pe/2QK559ObLitWpGP/jUIWSBQtRpOVh7JuUjj1cff13vs6VlewVuuC2+2bcFFjqx5xZMRgXNyWjlg/HQUbMvx/1E0Kf6m642jAeh6R0YSvJ1XogPUor8Vk8hwNJJmGP4rzXJs7bd+J/7RN/XylSR01oaHhM84Mnj0NSaOSpub6wBbms8lOhwyx234jrP1U/9mVFvw64KYexfFSFhPuUSELW03vhKT4/udBmsRVD9nrRzz7laYBU52fi3HAOL75PT1+KgRv+YHh547jEDGY9Pc0dPF1q0mndXVSvuQKtak7Gb08/CsUUx6Md9Kvejrn+z9AqzMiQIxdZ0lnyWYOe/DKxJzVyv3nqJkNgkOu4qa+xcfoSNu/byMqdV4nQRVYOh+a0bVAH1xEdX1pXT3X9b4Z3HMLKJ9Xo0cOZ0lkiuLpvHX9dKcmIRT/TsrDhT0NmeOWg5urGmSzafJD1K3dzOQLMclSgVduv+Mp1MJ0TFcKjbYOp3nIh/rpjFObW5MidmXSWBWjQ9ycm9q2GkVSFWGldDhJ6OpoHPiwaO4lZG84TqlWStWwjWjWqRZPvvuWLLPr2qvoWB9fs4uiBtfy2+bLuppAgfb7qdBw+gvEtS+j3GC7DXEQ2FcJvcXTPYc7fV2OTqxDlqlWmWBYjquE6Bhl67ySSoNOHOeR7myfYUqCsEzXK2yWaNs6wGXs5hN88xh5vf+6rbchVuAzVnIpiZFUhloSe+KiMPvT+A/47oWfcpBwMQ1qXg7x2F0IIYTIk9IQQQpgMCT0hhBAmQ0JPCCGEyfhkA1mEEEKIGDJ6U3w0Mnrz05NRg4ZBysEwyOhNIYQQ4iOR0BNCCGEyJPSEEEKYDAk9IYQQJkMGsuhFPb5L8JPolNcAUyhQKs1Ib2VLliwZSW/ETQXDHMiiIvjUdjbt9SMw0gq7ktVwdq5I3tfM4a2658uOrd743gpFa5uPsrUb0rBcTqNYNNNQB1Cogk+zZdMBzgZGYmVXghrODXB8XSHEi7jB7tXHsWnd+qWJqQ2ZQZaD+hFnt29k16lAnlnnoWy9xjiXzcFrp9SMvIX3+m0cvRFJ9vL1ad6gBJmN6B6V1uUgoRdLQ+jlY3ifPM22BfNYfzF+jTwl2cvU4ItsEQReOs/5wHCwyEz+UpVp0mUA/ZsVJaP+SGNhcKEXdZEVvTrQb/k5QhP9z8pQtCmTPOfRv1Im/Z54Ufh79Kftj36U6z2QDtXzoww4iseUeZwqNw6v+e0obuALXhjezTaKCysG0LqfJ36hMQvaxFFksKfFpCUs7u9A8lKIFX6N7Qvd+GXmGryDHZl1bQv98hrP3dbQykETvIsfWnZj2uH7L1YeUaTLSa0fV7Lux6pkiduVROjxOXTuMIs7NfrQu44NF1fMYJW6AyvWDKNGVuMoCwm9T+zxys5UGHaQ6NitdFQZt4e13fOgVD/EZ/YAuk7z4VHMGVPYUnn4MlYOKIt17LHGwbBCL4Ijo+rSaImZrhHRlrqlshF1aTeL53px8oEGZd7meBxbjmuiG2nEkTE4fbWKUksO4+mS68X7ec3N33Au9z/u9tnGsYmOBr2WmKHdbCOOjKVaIw/Mm3Skfd0SZI+6wo7FC1l18iEapR2tPA6y2lVXB/THx9A8Osrv7nu5E7iHeb8f44H5l7hL6L079VUWNHPlz8LdGdK2CgW0N9gxeyzjVvkTbm5P/51HmVkr6Z1GfXMVLtV6cazOcv5d1pScMac+7AD9K37DmkLT8N7UnWJG8OojrcvBeK7QNGJhkzHZ6t16Ztmo0m8CvSvqf6t9wjH3KXheT752tHhrDzcyZ28Flv5zAM+Jfejk2oae4xZzcNd4amZWoA7cyNSFvsQvXRjzRLJ/yUrOqctSt35C4MVQ5qtJrRIqzv25luNxLRbxVh6yfs5+HJZ64+M5jgGdXGjXczQeBzcxqWYmFOog1k/9nTMJhRBLmdWJbuNGM959IA2zKOJ2inf2dKcnp7/2YNuMLjg7lqJ05cYMWe7Fz7UywvPr7Nzmp2+Ix3vE3z+OYUOwPe36OMcFXgyb6vT6vjyhOycwYkVgCgvQCgm95GL67/R/fYlZXr4oZ5fwfv3ZKfYfDtFviNSK9PHHbvjPNM+ftMfCunxvxnYoiLlWxSXfc8S/bNadcIKCHqFWX8bXN2616Be00URJ2KVe5HHO2Q1mavN8SfuNrMvRf2xbPtc9KaguneVsQiEkpbDBNqOE3vvK2GgsC7oXS9rgNitIw/olMEeBdYYMSZ+0b3gxd10Q5HKiVvnE/8qMwnW+xF75iG3zPfBP1lgREnqplvRtsFT292HZeDxuzbPqtxKzpEKF4pjrTq+FpVWim7E1xYsXwFx1nWWjZ3EiXL9bR3VpOzv8FRRv3gJHw1+023BYNmKS27ekWAoVylEi5vWYhSVWrxxJYYbZK38n3o+W6ChdatlUpm1rXX3Q740Zg3B321aO6hoiykJFXnqFmb54CYpa6B4QT+9kyw15E5WchF5qqG9y/N8g4i8jRSYnnGul1L0s3o+GyMgo3Z+68HNySLQSd3qqdO9Bzczw5MhEmnwziQP3NRB2nEndZ3Gz+jiW/FDZoPvzjIlGVwZRutNrWaEylYxlOfT/EtUlNu24R+2fZ9C3eOKWRTT//uNHlK79bZkrDzmTNzosc5M7mxKt6gKnTiV7IyIk9N6a6h4Hp/3AgjPPYzfNczjQc9bPtM0np/DDi+DY8fNosjegs0v+JBepWbGeLP/9e0pYqbm7dyKNa7alXdN+7Ksyh4ObBlLJ2IbTGrCIYyfw02THuXMLCshlnraibrB+UHcWZeyHW/dSSRtymsfcvPlY1yhUkiVH9pc/01FkxMZaoXtQjCDw9gP9ThFPLuXXUnP1r3F0a+9KPce6tHX/l9D0dlTr7sYO79X8WD930n4Q8UFogjfhsSUcx0EjaZ07+SWqJG/zWezy6oNDJgXh/ptZ42tL1a8cKSiPeB+OJpgNHtsJd+zLmNa55UaRVqL9+XNcb+qVcqTl3FPc3D2SGlUHsC7xa0ptCCFPYoeQY2lt9XIni9IM85i+AbSEP30at0+8INfyaynJV7szg4cOZMTIfrR3yk26qCAOLxpBq6a9+PmvSyTqVhIfRDhHps/gQNHBzBlUJuWRtJoHXPjnAmY1XGlib4n2wRF+adqQjssvEaU/RLyf8COzmHrAnhFz+lFW+kjTjnkeqrTswsgJo+ndoDAZFVpCTv1Ol87zuZi4ey426RSkS5/u5Zu4RsXz53FjD8ykw/UlEnqvpcAiSwFKlHfkq1bdmeLlycR6WXV7VTy6sId5/dvTZfGlZEOJxfsIOzSZgesLMWXZYCqk1I+kewLZOvBb2m5zZPaaRWw4uJphVTKjiLzCqu6t6LfxngzTfl9hR5gwcCP2UxYxPMVCEB+NMhP5SztQt+0AZm87gve0uuRQagk9tIIVp/VDMRWZyRQ7YlbL89i+72S0EURExj0J2mbJHLdPvCChlxrmBWndrxmF4htPmkd4z1rAbnmD8EFoAjcwoP9RGi1dQGf7l3oqdDTc9RpG1wX3afzDABwz6C5gu/pM2baWMdV1wRd9haXDpnNI+u7fnSaIdQOGcrjRQpZ0LmwU07r9d2Wk/ICpDHJMj0J1nYuX9c1rZRYKFcqmu3lrCHkc07eXjDaExzHTGymz8VlBCb3kJPRSKX3JEhRN9LpHG3oN/9vyMcx7CzvGxI6zSD9mBeNrvKKiam6zZtFm7lpUom7NRJM8Znbixz9m0za/EtW1HWw8Kc/e7yaMoxO74ZZ+JF7jqyG3SwNgZo9zzLd6CisyWMffrtPj4FgWq5hXn7fv8DhZ6mmCAwiM0D3nWZXB8Qt5N52chF4qaZ5FEJH43bqZLdmyyGl8L5F+zP1uBOdcF+He1O7VF6UqkNuBKhTWttgmG7SitPuGIR1Lkk4bTmho4m8pxduJ5Ozcrgw+15pl7k3II5e0gVBgZa272C3LUKlCfIApydmoMdV17T71hTOcStbGe37enyu6e1SGao1p9GKqFhFPzkhyGm2S1wXKJGdIQ9D2vZyK+2pBR0H2es1pKBfWu4v0Z1GH3uyo7c6STkWSDVyJ4tbmkXSeciZu07wQpYpaow25wZWgxC2PGAoyZ7ZFYVGc8qXS6feJtxPJ+UVd6LqjJguWfJfkTUaMqFtbGdrZjfgupaS0xM/XYEDTif53aILYd+AiuVp0o02ieU2V+VvRv3V+CPZm5/HEw7dUnDl4jGDy4tKvFfnl1vQSOSVJaAgPDU00MEXD3dt3dLeEGBHc3PkrfScfIHa0MObkrNqHeZO/4aVR9eLthJ9lXptv6bs9kGsevfmyYnUqxv84VKFkwUIUaXkY+yal445X5qL1sC6UVh5n8UxvHsftjRPlj9eGC9h3G0J7+agsFcLxnfcdDfvuIuDaKrp8magMKlajfMni2BVph7e9M2VS6uBTPyH0qa5CaMN4HCKp927UXFjej68bd2bU8hPci2/PqYPZP7EHUwLbsGBaE7Iluawz0XDCZNrlvYXXnA0E6U+9JnA9M1ZcIZ/rZH5ylhfUKZFVFmJpePDvFtYfOsluzzV4B7x4lNPdaG3IV+IzMoTc5Pp9DTY581GkTEVqfeNC+yYlMZLVO14wmFUWNHfwdKlJp3V3XyyjkhKrmpPx29MvYfCQriV7/a/RdOzvxZMaXeihK4MsEdfY5/U3V0oPYdGUZhQ28G4Mw5ndX8Ntzw5U6bSBwNd0SyusquPmt5VBCYWguyFfY+P0JWzet5GVO6/qmoRKcjg0p22DOriO6GgU6+oZTjlEcXCYEw3cLuoa2EpsC5TDoXgmIgLuY1m5E5N+6UHVHCnfaMJ9f6dbm8lcKNeeNmWecnDVTsLqjGLBVBdKGMnA27QuBwk9E2OYi8i+g8ggTnsfxffWE7DNT9nquqcSO+Oo5YZzszVthlUOYVw7tJ8jF+8TobUgS94ifOHkQOHMb/GdXbSuLuw9wtnHVthXqYHT50a0kq+OhJ74qP4zoWfEJPQMg5SDYUjrcpDODyGEECZDQk8IIYTJkNATQghhMiT0hBBCmIxPNpBFCCGEiCGjN8VHI6M3Pz0ZNWgYpBwMg4zeFEIIIT4SCT0hhBAmQ0JPCCGEyZA+PRNjmH16KoJPbWfTXj8CI62wK1kNZ+eK5E22fFCC1B5vWAy+LyniBrtXH8emdevXz6GpCeHC3q3sOnGLMAs7yn31NQ1LZ+MtJs4yCAZZDqpgTm3Zyt6zQURa5aZkjYY4O+bhlZe2+hFnt29k16lAnlnnoWy9xjiXzWE0ZRAjrctBQu8NNE9vcfLwCXyvBhESnY5MOez4vKwjVcvkInamR3Ug3gdDqFG7ZOzxhs7gQi/qIit6daDf8nPELPYcL0PRpkzynEf/Spn0e/RSe7wBMtjQC7/G9oVu/DJzDd7Bjsy6toV+iZazSUx9cxPDXIeyNbsL/VoWh7Pr+HXBCXJ0mcMf05tQwAjuuoZWDlEXVtGr9RCW+z2JWeEsjsKaoi3G47m4N8kvbU3wLn5o2Y1ph++/mLRdkS4ntX5cybofq5IlbpfBk9AzENEBR1k2Yza/rf+HAFV2vmjSgsZVipLPNpogPx/2HL5Dxgo1qGRzhpUX6+O9pKX+Xxo2wwq9CI6MqkujJWY06dKWuqWyEXVpN4vnenHygQZl3uZ4HFuO64sbb2qPN0yGGHqaR0f53X0vdwL3MO/3Yzww/xL3V4Ve+FFGf9mM5fazOLbKhbyxAafm6qLWOPU+QL6hf3NgcjUMfdpjgyqHCB9GVWvKEnNnurSvRans0VzasYy5q07xQKMkb6vFHFutO9fxxaG+yoJmrvxZuDtD2lahgPYGO2aPZdwqf8LN7em/8ygza1nrDzZsEnqfnJqg3dPoMXApJx6pMc9fn58WT+H7MkmrsObRCWb36ss07weY15vMDQ8JvVR7uAbXxgdp+edsmudPeDSIOP0rjWuPYX+oGeV+OMCJn8oTu5Rbao83UIYYei9EbqRDPlc8w2q8IvTU+E+tT8XRQXTaeYo5tRO9eIv2YVi5+rjdKMs4n/2MKWfIpWBY5fBw5fc03teMPxd+S8KlHcHpqc2pPdKbULMy/HDsED9ViDunT7eNZ+jtNrh3L5aw8LIuCGd9VZVB+55RfPhuTk9xTLYos2FK63Iw7CZxmtPwcN8k2vdYHBt4WJWh30K3lwIvhjJrRQYscqNjYcOu2IYs0scfu+E/JwmwGNblezO2Q0HMtSou+Z7jmX5/ao8X70Bhg21GhX4jBSp/vLxOEKH8jGLFkq1Qn/4Lvm30OWaRZ1i++AiJ1/MWrxOJz7ncDJ+aOPBiWFO+/yg6fG6GVnUZ37MJV3bGRmNZkDjwYpgVpGH9EroGnwLrDBnk5v4Kcl4S0dzfxfjhK/CPvbaU5Grci+7lrWJ/l6JMTgwcUIcsr7lHiFezbDwet+ZZ9VuJWVKhQnHMdefVwtLqRad8ao8X78IMs9edwCg/fC/GrDir0P0nufSUKVeU9AoNtw8fJPYw8RYsaTxpMilf2uWoUCImxiywtHrTla0lOkp30m0q07a1rj7o94qkJPReiOLUoplsCNA/Ziuy8mXj6rx+WISSHA2/pmZmSb0PS0NkZJTuT12YOTnEDRh6rdQeL95ZdCQx91W09wkKfPmVlIWtLVa66qAOuMUNCb33p4kkMkp3nnXh51TpDVe26hKbdtyj9s8z6Ftcmn6vIqEXL8KH1X9d5UU9TV+cil+8xe0zYz3Gjmug3xAfRgTHjp9Hk70BnV3yv8VFmtrjxTuzzkOe7LozrLrG0cMBqPW746kjwomMGSWgUr30O/EOIk5w3E9DdufvcCnwmis76gbrB3VnUcZ+uHUv9epPHITcH+JFnzuCz72ElqsySz7y2b7N6UlPliwZ9X8XH4ImeBMeW8JxHDSS1rnfXAapPV68B4vKfP1VLsy0kRxaNJ/DT/X7Y6kJuBNMtC70FJmzkFWK4j1pCN6wki3hFRk0pgUpXtrR/vw5rjf1SjnScu4pbu4eSY2qA1h3Q5ocryKXpd7zm7cITHSdKDJk5HX9+eJjCefI9BkcKDqYOYPKvMXos9QeL95PJr4eM46mec1R+c+nfauf8Trky5nDW5j/v+9oNfUfnuuOSl+0FCWkU+n9hPswfeohio74lUFlX3Flm+ehSssujJwwmt4NCuvuWVpCTv1Ol87zuSi5lyIJPb3nUTF9Qolo1Em3RZoIOzSZgesLMWXZYCq8xdvl1B4v3p/Z5+3x3LuckU1LoTk8ne+cm9Fu7CYeVWhEtZhXnwoLKn1Vm2xyd3kPYRyaMJz19hNYNrz8q/uplZnIX9qBum0HMHvbEbyn1SWHUkvooRWsOC2dqimRy1LPMlu2JE92michhEjqpSlN4AYG9D9Ko6UL6Gz/5seE1B4vPhzLok2Z+NcR7ujqSdSTq/jtXsBQuzPsvqZGmbkOHV0+k1G070xD4Lph9D9cn6VLOvL2l3ZGyg+YyiDH9ChU17l4OVq/XyQmoaeXvnRpSiTq/dU+CeTmA0m9NBN2jIkdZ5F+zArG18is3/kaqT1efFyaINbM9OKq2oJyvUcY/Kw4hizs6BQ6uqVjjNcPpPrSNrPHOeZbPYUVGaylDFIiZ0VPmacejR0z6Ld0VJfwPSOfOaeJSD/mfjeCc66LcG9q9+aLMrXHi49Mw/3NExi/6SEZHAYxZ2Ql+WzkHUWeXch3g/1xXeZG0zzvcmUrsLLWtd4ty1CpgvRwp0TuF/GUeWnZuxmfx79K0IZwaOdhnug3X0kTxoMHMvfEO4v0Z1GH3uyo7c6STkWSDUSJ4tbmkXSecka/rZPa40UqaYmfmPBtZ4ZSXV1Jz96eBH3elgV/jKJqorajeHuR55fQoesuai9YQKeiyQIr6jabh/Zkypv66XRP3PsOXCRXi260kaftFMncm4lpQvD+qT3fL7oQN5WVtQOjt6ygT7FXtZjC+HdWX+Zn/IXFXfLo9xk2g5p7M/ws89q1YOAeDUWL5U76dKBVEfHwNlfvFmbsyX2MKmmW+uMNlEHPvRmxie8KtmVFSHnG/bufsWVe36H01G85PVsMY1eOrvy28ie++cx4+lYNqRzCfRfR7uth7NEUoVjupM/JWlUED29d426RUZw8MpySZmouLB/I0D/CKdu6NwPbVyRnzOWuDmb/pM50XleM2Tum0ziXcYReWpeDhF5y6kB2ThzI4N9OEjP9pnUJV9yXjcY5f7LPPcMv8ef4USwIqsvEmT2oYiRD1Qwm9DR38HSpSad1d18si5ISq5qT8dvTj0KKVB5vwKMoDDL01NfYOH0Jm/dtZOXOq0SgJIdDc9o2qIPriI6J1tVTE3LDj7N+Z9j312q8jkTj2HU04/vXoYCRvU0zlHLQ3F6NS5UerAtU656zX0FhSU23E+wZ9DlmRHFwmBMN3C4SqSsn2wLlcCieiYiA+1hW7sSkX3pQNYfxPOVJ6BkEFcE+XsyZu5IN3pd5bPEZ1RrVw6mEHdbPH3P3uj+nrkBZl170cylPdiMapmZw6+mZIIMMvbcWztmNf3A8xBa7ol9QteLnZDbSgbPGXQ5hXDu0nyMX7xOhtSBL3iJ84eRA4cxGdDPSk9AzMOonAZzzPcfVwBDCoxVYZspBgeJlKFckm1FO9SOh9+kZ9832v0PKwTBI6ImPSkLv05ObrWGQcjAMaV0OMrxHCCGEyZDQE0IIYTIk9IQQQpiMT9anJ4QQQsT4zw9kEUIIIT4FeeQSQghhMiT0hBBCmAwJPSGEECZDQk8IIYTJkNATQghhMiT0hBBCmAwJPSGEECZDQk8IIYTJkNATQghhMiT0hBBCmAwJPSGEECZDQk8IIYTJkNATQghhMiT0hBBCmAwJPSGEECYC/g87T/znPhTX/gAAAABJRU5ErkJggg==;" vertex="1" parent="1">
          <mxGeometry x="210" y="50" width="445" height="150" as="geometry" />
        </mxCell>
        <mxCell id="pM872rkq_lDW4JvCNZDl-15" value="La solucion optima esta entre [suma de los menores valores de cada columna ; diagonal primaria] = [22+18+15;25+21+23] = [55;69]&amp;nbsp;" style="text;html=1;align=center;verticalAlign=middle;resizable=0;points=[];autosize=1;strokeColor=none;fillColor=none;" vertex="1" parent="1">
          <mxGeometry x="90" y="230" width="730" height="30" as="geometry" />
        </mxCell>
        <mxCell id="pM872rkq_lDW4JvCNZDl-16" value="Inicio" style="ellipse;whiteSpace=wrap;html=1;" vertex="1" parent="1">
          <mxGeometry x="372.5" y="310" width="120" height="80" as="geometry" />
        </mxCell>
        <mxCell id="pM872rkq_lDW4JvCNZDl-17" value="A-&amp;gt;t1&lt;br&gt;25+19+30=74" style="ellipse;whiteSpace=wrap;html=1;" vertex="1" parent="1">
          <mxGeometry x="160" y="420" width="120" height="80" as="geometry" />
        </mxCell>
        <mxCell id="pM872rkq_lDW4JvCNZDl-18" value="A-&amp;gt;t2&lt;br&gt;18+22+30=70" style="ellipse;whiteSpace=wrap;html=1;" vertex="1" parent="1">
          <mxGeometry x="372.5" y="470" width="120" height="80" as="geometry" />
        </mxCell>
        <mxCell id="pM872rkq_lDW4JvCNZDl-19" value="A-&amp;gt;t2&lt;br&gt;15+22+21=58" style="ellipse;whiteSpace=wrap;html=1;" vertex="1" parent="1">
          <mxGeometry x="560" y="420" width="120" height="80" as="geometry" />
        </mxCell>
        <mxCell id="pM872rkq_lDW4JvCNZDl-20" value="" style="endArrow=classic;html=1;rounded=0;entryX=0;entryY=0;entryDx=0;entryDy=0;" edge="1" parent="1" source="pM872rkq_lDW4JvCNZDl-16" target="pM872rkq_lDW4JvCNZDl-19">
          <mxGeometry width="50" height="50" relative="1" as="geometry">
            <mxPoint x="390" y="350" as="sourcePoint" />
            <mxPoint x="440" y="300" as="targetPoint" />
          </mxGeometry>
        </mxCell>
        <mxCell id="pM872rkq_lDW4JvCNZDl-21" value="" style="endArrow=classic;html=1;rounded=0;" edge="1" parent="1" source="pM872rkq_lDW4JvCNZDl-16" target="pM872rkq_lDW4JvCNZDl-18">
          <mxGeometry width="50" height="50" relative="1" as="geometry">
            <mxPoint x="488" y="386" as="sourcePoint" />
            <mxPoint x="588" y="442" as="targetPoint" />
          </mxGeometry>
        </mxCell>
        <mxCell id="pM872rkq_lDW4JvCNZDl-22" value="" style="endArrow=classic;html=1;rounded=0;" edge="1" parent="1" source="pM872rkq_lDW4JvCNZDl-16" target="pM872rkq_lDW4JvCNZDl-17">
          <mxGeometry width="50" height="50" relative="1" as="geometry">
            <mxPoint x="443" y="400" as="sourcePoint" />
            <mxPoint x="443" y="480" as="targetPoint" />
          </mxGeometry>
        </mxCell>
        <mxCell id="pM872rkq_lDW4JvCNZDl-23" value="(Paso 1)" style="text;html=1;align=center;verticalAlign=middle;resizable=0;points=[];autosize=1;strokeColor=none;fillColor=none;" vertex="1" parent="1">
          <mxGeometry x="510" y="335" width="70" height="30" as="geometry" />
        </mxCell>
        <mxCell id="pM872rkq_lDW4JvCNZDl-25" value="B-&amp;gt;t1&lt;br&gt;15+28+19=62" style="ellipse;whiteSpace=wrap;html=1;" vertex="1" parent="1">
          <mxGeometry x="470" y="620" width="120" height="80" as="geometry" />
        </mxCell>
        <mxCell id="pM872rkq_lDW4JvCNZDl-26" value="B-&amp;gt;t2&lt;br&gt;15+21+22=58" style="ellipse;whiteSpace=wrap;html=1;" vertex="1" parent="1">
          <mxGeometry x="680" y="620" width="120" height="80" as="geometry" />
        </mxCell>
        <mxCell id="pM872rkq_lDW4JvCNZDl-27" value="" style="endArrow=classic;html=1;rounded=0;" edge="1" parent="1" source="pM872rkq_lDW4JvCNZDl-19" target="pM872rkq_lDW4JvCNZDl-26">
          <mxGeometry width="50" height="50" relative="1" as="geometry">
            <mxPoint x="400" y="540" as="sourcePoint" />
            <mxPoint x="450" y="490" as="targetPoint" />
          </mxGeometry>
        </mxCell>
        <mxCell id="pM872rkq_lDW4JvCNZDl-28" value="" style="endArrow=classic;html=1;rounded=0;" edge="1" parent="1" source="pM872rkq_lDW4JvCNZDl-19" target="pM872rkq_lDW4JvCNZDl-25">
          <mxGeometry width="50" height="50" relative="1" as="geometry">
            <mxPoint x="652" y="507" as="sourcePoint" />
            <mxPoint x="728" y="633" as="targetPoint" />
          </mxGeometry>
        </mxCell>
        <mxCell id="pM872rkq_lDW4JvCNZDl-29" value="(Paso 1)" style="text;html=1;align=center;verticalAlign=middle;resizable=0;points=[];autosize=1;strokeColor=none;fillColor=none;" vertex="1" parent="1">
          <mxGeometry x="690" y="445" width="70" height="30" as="geometry" />
        </mxCell>
        <mxCell id="pM872rkq_lDW4JvCNZDl-30" value="(FIN)" style="text;html=1;align=center;verticalAlign=middle;resizable=0;points=[];autosize=1;strokeColor=none;fillColor=none;" vertex="1" parent="1">
          <mxGeometry x="810" y="645" width="50" height="30" as="geometry" />
        </mxCell>
        <mxCell id="pM872rkq_lDW4JvCNZDl-31" value="Como el valor obtenido es esta hoja es menor que el resto de opciones posibles por&lt;br&gt;analizar, termina el algoritmo." style="text;html=1;align=center;verticalAlign=middle;resizable=0;points=[];autosize=1;strokeColor=none;fillColor=none;" vertex="1" parent="1">
          <mxGeometry x="600" y="710" width="470" height="40" as="geometry" />
        </mxCell>
      </root>
    </mxGraphModel>
  </diagram>
</mxfile>
